<svg width="24" height="24" viewBox="0 0 24 24" fill="none" xmlns="http://www.w3.org/2000/svg">
<path fill-rule="evenodd" clip-rule="evenodd" d="M23 5.13082C22.1908 5.49247 21.3204 5.73646 20.4078 5.84617C21.34 5.28413 22.0557 4.39367 22.3923 3.33224C21.5205 3.85274 20.5546 4.23101 19.5261 4.43485C18.7035 3.552 17.5292 3 16.2316 3C13.3173 3 11.176 5.73715 11.8343 8.57882C8.084 8.38951 4.75822 6.58055 2.53175 3.83163C1.34925 5.87385 1.9185 8.5456 3.92772 9.89843C3.189 9.87455 2.49222 9.67036 1.88447 9.32981C1.83497 11.435 3.33406 13.4046 5.5045 13.8431C4.86925 14.0164 4.1735 14.0569 3.46572 13.9202C4.03978 15.7254 5.70594 17.0388 7.6825 17.0758C5.785 18.5736 3.39422 19.2426 1 18.9585C2.99753 20.2476 5.37078 21 7.919 21C16.2993 21 21.0337 13.8742 20.7477 7.48313C21.6298 6.84184 22.395 6.0417 23 5.13082Z" fill="black"/>
</svg>
