<svg width="24" height="24" viewBox="0 0 24 24" fill="none" xmlns="http://www.w3.org/2000/svg">
<path fill-rule="evenodd" clip-rule="evenodd" d="M17.3384 5.4625C16.675 5.4625 16.1375 6 16.1375 6.6625C16.1375 7.325 16.675 7.8625 17.3384 7.8625C18.0009 7.8625 18.5375 7.325 18.5375 6.6625C18.5375 6 18.0009 5.4625 17.3384 5.4625ZM12 15.3334C10.1591 15.3334 8.66656 13.8416 8.66656 12C8.66656 10.1591 10.1591 8.66656 12 8.66656C13.8409 8.66656 15.3334 10.1591 15.3334 12C15.3334 13.8416 13.8409 15.3334 12 15.3334ZM12 6.865C9.16438 6.865 6.865 9.16406 6.865 12C6.865 14.8356 9.16438 17.1356 12 17.1356C14.8356 17.1356 17.135 14.8366 17.135 12C17.135 9.16406 14.8356 6.865 12 6.865ZM12 2C9.28438 2 8.94438 2.01156 7.8775 2.06C4.24594 2.22656 2.2275 4.24156 2.06063 7.87656C2.01156 8.94406 2 9.28406 2 12C2 14.7156 2.01156 15.0566 2.06 16.1231C2.22688 19.755 4.24156 21.7731 7.87687 21.94C8.94438 21.9884 9.28438 22 12 22C14.7156 22 15.0566 21.9884 16.1231 21.94C19.7519 21.7731 21.775 19.7584 21.9394 16.1231C21.9884 15.0566 22 14.7156 22 12C22 9.28406 21.9884 8.94406 21.94 7.8775C21.7766 4.24906 19.7591 2.2275 16.1241 2.06094C15.0566 2.01156 14.7156 2 12 2ZM12 3.8025C14.67 3.8025 14.9869 3.8125 16.0419 3.86094C18.7516 3.98406 20.0175 5.27 20.1409 7.96C20.1891 9.01406 20.1981 9.33062 20.1981 12.0006C20.1981 14.6719 20.1884 14.9872 20.1409 16.0419C20.0166 18.7291 18.7541 20.0175 16.0419 20.1409C14.9869 20.1891 14.6719 20.1991 12 20.1991C9.33 20.1991 9.01312 20.1891 7.95906 20.1409C5.2425 20.0166 3.98344 18.7247 3.86 16.0409C3.81156 14.9869 3.80187 14.6709 3.80187 12C3.80187 9.33 3.8125 9.01406 3.86 7.95906C3.98438 5.27 5.24687 3.98344 7.95906 3.86C9.01406 3.8125 9.33 3.8025 12 3.8025Z" fill="black"/>
</svg>
