<svg width="24" height="24" viewBox="0 0 24 24" fill="none" xmlns="http://www.w3.org/2000/svg">
<path d="M21.1412 6.857H8.56975M6.28404 6.857H2.85547M21.1412 18.2856H8.56975M6.28404 18.2856H2.85547M15.4269 12.5713H2.85547M21.1412 12.5713H17.7126M7.4269 4.57129C7.73 4.57129 8.02069 4.6917 8.23502 4.90602C8.44935 5.12035 8.56975 5.41104 8.56975 5.71415V7.99986C8.56975 8.30297 8.44935 8.59366 8.23502 8.80798C8.02069 9.02231 7.73 9.14272 7.4269 9.14272C7.12379 9.14272 6.8331 9.02231 6.61878 8.80798C6.40445 8.59366 6.28404 8.30297 6.28404 7.99986V5.71415C6.28404 5.41104 6.40445 5.12035 6.61878 4.90602C6.8331 4.6917 7.12379 4.57129 7.4269 4.57129V4.57129ZM7.4269 15.9999C7.73 15.9999 8.02069 16.1203 8.23502 16.3346C8.44935 16.5489 8.56975 16.8396 8.56975 17.1427V19.4284C8.56975 19.7315 8.44935 20.0222 8.23502 20.2366C8.02069 20.4509 7.73 20.5713 7.4269 20.5713C7.12379 20.5713 6.8331 20.4509 6.61878 20.2366C6.40445 20.0222 6.28404 19.7315 6.28404 19.4284V17.1427C6.28404 16.8396 6.40445 16.5489 6.61878 16.3346C6.8331 16.1203 7.12379 15.9999 7.4269 15.9999ZM16.5698 10.2856C16.8729 10.2856 17.1635 10.406 17.3779 10.6203C17.5922 10.8346 17.7126 11.1253 17.7126 11.4284V13.7141C17.7126 14.0173 17.5922 14.3079 17.3779 14.5223C17.1635 14.7366 16.8729 14.857 16.5698 14.857C16.2667 14.857 15.976 14.7366 15.7616 14.5223C15.5473 14.3079 15.4269 14.0173 15.4269 13.7141V11.4284C15.4269 11.1253 15.5473 10.8346 15.7616 10.6203C15.976 10.406 16.2667 10.2856 16.5698 10.2856V10.2856Z" stroke="black" stroke-linecap="round" stroke-linejoin="round"/>
</svg>
